<mxfile host="app.diagrams.net" agent="Mozilla/5.0 (Windows NT 10.0; Win64; x64) AppleWebKit/537.36 (KHTML, like Gecko) Chrome/141.0.0.0 Safari/537.36" version="28.2.1">
  <diagram name="Static Website Hosting" id="ILnYEqLAeECo8k89QXNG">
    <mxGraphModel dx="1426" dy="777" grid="1" gridSize="10" guides="1" tooltips="1" connect="1" arrows="1" fold="1" page="1" pageScale="1" pageWidth="827" pageHeight="1169" math="0" shadow="0">
      <root>
        <mxCell id="0" />
        <mxCell id="1" parent="0" />
        <mxCell id="iSZSVaqdMj8oTTKLLa4G-1" value="AWS Cloud" style="points=[[0,0],[0.25,0],[0.5,0],[0.75,0],[1,0],[1,0.25],[1,0.5],[1,0.75],[1,1],[0.75,1],[0.5,1],[0.25,1],[0,1],[0,0.75],[0,0.5],[0,0.25]];outlineConnect=0;gradientColor=none;html=1;whiteSpace=wrap;fontSize=12;fontStyle=0;container=1;pointerEvents=0;collapsible=0;recursiveResize=0;shape=mxgraph.aws4.group;grIcon=mxgraph.aws4.group_aws_cloud_alt;strokeColor=#232F3E;fillColor=none;verticalAlign=top;align=left;spacingLeft=30;fontColor=#232F3E;dashed=0;" vertex="1" parent="1">
          <mxGeometry x="340" y="270" width="470" height="190" as="geometry" />
        </mxCell>
        <mxCell id="iSZSVaqdMj8oTTKLLa4G-2" value="CodePipeline&amp;nbsp;" style="text;strokeColor=none;fillColor=none;html=1;fontSize=18;fontStyle=1;verticalAlign=middle;align=center;" vertex="1" parent="iSZSVaqdMj8oTTKLLa4G-1">
          <mxGeometry x="20" y="128" width="100" height="40" as="geometry" />
        </mxCell>
        <mxCell id="iSZSVaqdMj8oTTKLLa4G-3" value="CodeBuild&amp;nbsp;" style="text;strokeColor=none;fillColor=none;html=1;fontSize=18;fontStyle=1;verticalAlign=middle;align=center;" vertex="1" parent="iSZSVaqdMj8oTTKLLa4G-1">
          <mxGeometry x="179" y="128" width="100" height="40" as="geometry" />
        </mxCell>
        <mxCell id="iSZSVaqdMj8oTTKLLa4G-4" value="CodeDeploy&amp;nbsp;" style="text;strokeColor=none;fillColor=none;html=1;fontSize=18;fontStyle=1;verticalAlign=middle;align=center;" vertex="1" parent="iSZSVaqdMj8oTTKLLa4G-1">
          <mxGeometry x="339" y="128" width="100" height="40" as="geometry" />
        </mxCell>
        <mxCell id="iSZSVaqdMj8oTTKLLa4G-5" value="" style="edgeStyle=orthogonalEdgeStyle;html=1;endArrow=block;elbow=vertical;startArrow=none;endFill=1;strokeColor=#545B64;rounded=0;" edge="1" parent="iSZSVaqdMj8oTTKLLa4G-1">
          <mxGeometry width="100" relative="1" as="geometry">
            <mxPoint x="109" y="88.5" as="sourcePoint" />
            <mxPoint x="190" y="89" as="targetPoint" />
          </mxGeometry>
        </mxCell>
        <mxCell id="iSZSVaqdMj8oTTKLLa4G-6" value="" style="edgeStyle=orthogonalEdgeStyle;html=1;endArrow=block;elbow=vertical;startArrow=none;endFill=1;strokeColor=#545B64;rounded=0;" edge="1" parent="iSZSVaqdMj8oTTKLLa4G-1">
          <mxGeometry width="100" relative="1" as="geometry">
            <mxPoint x="269" y="88.5" as="sourcePoint" />
            <mxPoint x="350" y="89" as="targetPoint" />
          </mxGeometry>
        </mxCell>
        <mxCell id="iSZSVaqdMj8oTTKLLa4G-10" value="" style="sketch=0;points=[[0,0,0],[0.25,0,0],[0.5,0,0],[0.75,0,0],[1,0,0],[0,1,0],[0.25,1,0],[0.5,1,0],[0.75,1,0],[1,1,0],[0,0.25,0],[0,0.5,0],[0,0.75,0],[1,0.25,0],[1,0.5,0],[1,0.75,0]];outlineConnect=0;fontColor=#232F3E;fillColor=#C925D1;strokeColor=#ffffff;dashed=0;verticalLabelPosition=bottom;verticalAlign=top;align=center;html=1;fontSize=12;fontStyle=0;aspect=fixed;shape=mxgraph.aws4.resourceIcon;resIcon=mxgraph.aws4.codedeploy;" vertex="1" parent="iSZSVaqdMj8oTTKLLa4G-1">
          <mxGeometry x="350" y="50" width="78" height="78" as="geometry" />
        </mxCell>
        <mxCell id="iSZSVaqdMj8oTTKLLa4G-11" value="" style="sketch=0;points=[[0,0,0],[0.25,0,0],[0.5,0,0],[0.75,0,0],[1,0,0],[0,1,0],[0.25,1,0],[0.5,1,0],[0.75,1,0],[1,1,0],[0,0.25,0],[0,0.5,0],[0,0.75,0],[1,0.25,0],[1,0.5,0],[1,0.75,0]];outlineConnect=0;fontColor=#232F3E;fillColor=#C925D1;strokeColor=#ffffff;dashed=0;verticalLabelPosition=bottom;verticalAlign=top;align=center;html=1;fontSize=12;fontStyle=0;aspect=fixed;shape=mxgraph.aws4.resourceIcon;resIcon=mxgraph.aws4.codebuild;" vertex="1" parent="iSZSVaqdMj8oTTKLLa4G-1">
          <mxGeometry x="190" y="50" width="78" height="78" as="geometry" />
        </mxCell>
        <mxCell id="iSZSVaqdMj8oTTKLLa4G-12" value="" style="sketch=0;points=[[0,0,0],[0.25,0,0],[0.5,0,0],[0.75,0,0],[1,0,0],[0,1,0],[0.25,1,0],[0.5,1,0],[0.75,1,0],[1,1,0],[0,0.25,0],[0,0.5,0],[0,0.75,0],[1,0.25,0],[1,0.5,0],[1,0.75,0]];outlineConnect=0;fontColor=#232F3E;fillColor=#C925D1;strokeColor=#ffffff;dashed=0;verticalLabelPosition=bottom;verticalAlign=top;align=center;html=1;fontSize=12;fontStyle=0;aspect=fixed;shape=mxgraph.aws4.resourceIcon;resIcon=mxgraph.aws4.codepipeline;" vertex="1" parent="iSZSVaqdMj8oTTKLLa4G-1">
          <mxGeometry x="35" y="50" width="78" height="78" as="geometry" />
        </mxCell>
        <mxCell id="iSZSVaqdMj8oTTKLLa4G-13" value="" style="sketch=0;outlineConnect=0;fontColor=#232F3E;gradientColor=none;fillColor=#232F3D;strokeColor=none;dashed=0;verticalLabelPosition=bottom;verticalAlign=top;align=center;html=1;fontSize=12;fontStyle=0;aspect=fixed;pointerEvents=1;shape=mxgraph.aws4.user;" vertex="1" parent="1">
          <mxGeometry x="30" y="320" width="78" height="78" as="geometry" />
        </mxCell>
        <mxCell id="iSZSVaqdMj8oTTKLLa4G-14" value="&lt;strong data-end=&quot;218&quot; data-start=&quot;205&quot;&gt;Developer&lt;/strong&gt;" style="text;strokeColor=none;fillColor=none;html=1;fontSize=18;fontStyle=1;verticalAlign=middle;align=center;" vertex="1" parent="1">
          <mxGeometry x="19" y="398" width="100" height="40" as="geometry" />
        </mxCell>
        <mxCell id="iSZSVaqdMj8oTTKLLa4G-15" value="" style="edgeStyle=orthogonalEdgeStyle;html=1;endArrow=block;elbow=vertical;startArrow=none;endFill=1;strokeColor=#545B64;rounded=0;" edge="1" parent="1">
          <mxGeometry width="100" relative="1" as="geometry">
            <mxPoint x="108" y="358.5" as="sourcePoint" />
            <mxPoint x="200" y="359" as="targetPoint" />
          </mxGeometry>
        </mxCell>
        <mxCell id="iSZSVaqdMj8oTTKLLa4G-16" value="" style="shape=image;html=1;verticalAlign=top;verticalLabelPosition=bottom;labelBackgroundColor=#ffffff;imageAspect=0;aspect=fixed;image=https://icons.diagrams.net/icon-cache1/Picons_Social-2097/github_rounded-685.svg" vertex="1" parent="1">
          <mxGeometry x="200" y="318" width="80" height="80" as="geometry" />
        </mxCell>
        <mxCell id="iSZSVaqdMj8oTTKLLa4G-17" value="&lt;strong data-end=&quot;274&quot; data-start=&quot;264&quot;&gt;GitHub&lt;/strong&gt;" style="text;strokeColor=none;fillColor=none;html=1;fontSize=18;fontStyle=1;verticalAlign=middle;align=center;" vertex="1" parent="1">
          <mxGeometry x="190" y="398" width="100" height="40" as="geometry" />
        </mxCell>
        <mxCell id="iSZSVaqdMj8oTTKLLa4G-18" value="" style="edgeStyle=orthogonalEdgeStyle;html=1;endArrow=block;elbow=vertical;startArrow=none;endFill=1;strokeColor=#545B64;rounded=0;" edge="1" parent="1">
          <mxGeometry width="100" relative="1" as="geometry">
            <mxPoint x="280" y="358.5" as="sourcePoint" />
            <mxPoint x="372" y="359" as="targetPoint" />
          </mxGeometry>
        </mxCell>
      </root>
    </mxGraphModel>
  </diagram>
</mxfile>
